<?xml version="1.0" encoding="UTF-8"?>
<svg width="146px" height="39px" viewBox="0 0 146 39" version="1.1" xmlns="http://www.w3.org/2000/svg" xmlns:xlink="http://www.w3.org/1999/xlink">
    <!-- Generator: Sketch 49.2 (51160) - http://www.bohemiancoding.com/sketch -->
    <title>Logo</title>
    <desc>Created with Sketch.</desc>
    <defs></defs>
    <g id="Main" stroke="none" stroke-width="1" fill="none" fill-rule="evenodd">
        <g id="1-1-1-Login" transform="translate(-647.000000, -206.000000)" fill-rule="nonzero">
            <g id="Logo" transform="translate(647.000000, 206.000000)">
                <g id="Group">
                    <g fill="#161616" id="Shape">
                        <path d="M0.0960526316,0.443902439 L8.1004386,0.443902439 C12.6469298,0.443902439 14.3438596,1.14146341 15.6565789,2.2195122 C17.5776316,3.80487805 18.5381579,6.18292683 18.5381579,8.65609756 C18.5381579,11.1292683 17.5135965,13.697561 15.9447368,15.0292683 C14.2798246,16.4243902 12.6149123,17.1219512 8.80482456,17.1219512 L6.08333333,17.1219512 L6.08333333,24.7317073 L0.0960526316,24.7317073 L0.0960526316,0.443902439 Z M6.11535088,11.6682927 L8.67675439,11.6682927 C9.86140351,11.6682927 12.5828947,11.6682927 12.5828947,8.75121951 C12.5828947,5.89756098 9.79736842,5.89756098 8.45263158,5.89756098 L6.14736842,5.89756098 L6.14736842,11.6682927 L6.11535088,11.6682927 Z"></path>
                        <polygon points="20.9394737 0.443902439 26.4464912 0.443902439 26.4464912 24.7317073 20.9394737 24.7317073"></polygon>
                        <path d="M49.7552632,24.7317073 L44.2482456,24.7317073 L44.2482456,22.7658537 L44.1842105,22.7658537 C43.2557018,24.5414634 40.9824561,25.3658537 38.8052632,25.3658537 C32.9780702,25.3658537 29.552193,20.8317073 29.552193,15.6317073 C29.552193,9.67073171 33.9065789,5.92926829 38.8052632,5.92926829 C41.8149123,5.92926829 43.5118421,7.38780488 44.1842105,8.49756098 L44.2482456,8.49756098 L44.2482456,6.56341463 L49.7552632,6.56341463 L49.7552632,24.7317073 Z M39.6377193,20.2926829 C43.095614,20.2926829 44.2482456,17.4073171 44.2482456,15.6317073 C44.2482456,13.4439024 42.7114035,11.002439 39.6057018,11.002439 C36.4679825,11.002439 35.0592105,13.6341463 35.0592105,15.695122 C35.0592105,17.4073171 36.3078947,20.2926829 39.6377193,20.2926829 Z"></path>
                        <polygon points="60.5131579 6.53170732 63.170614 6.53170732 63.170614 10.6536585 60.5131579 10.6536585 60.5131579 24.7317073 55.0061404 24.7317073 55.0061404 10.6536585 52.2846491 10.6536585 52.2846491 6.53170732 55.0061404 6.53170732 55.0061404 0.443902439 60.5131579 0.443902439"></polygon>
                        <path d="M65.7320175,10.6536585 L63.6828947,10.6536585 L63.6828947,6.53170732 L65.7320175,6.53170732 L65.7320175,5.5804878 C65.7320175,0.475609756 70.0864035,-7.10542736e-15 72.7438596,-7.10542736e-15 L73.5442982,-7.10542736e-15 L73.5442982,4.0902439 L72.9039474,4.0902439 C72.4557018,4.0902439 71.2070175,4.24878049 71.2070175,5.80243902 L71.2070175,6.53170732 L73.5122807,6.53170732 L73.5122807,10.6536585 L71.2070175,10.6536585 L71.2070175,24.7317073 L65.7,24.7317073 L65.7,10.6536585 L65.7320175,10.6536585 Z"></path>
                        <path d="M84.3342105,5.92926829 C91.0258772,5.92926829 94.2276316,11.1609756 94.2276316,15.6 C94.2276316,20.0390244 91.0258772,25.2707317 84.3342105,25.2707317 C77.6425439,25.2707317 74.4407895,20.0390244 74.4407895,15.6 C74.4407895,11.1609756 77.6425439,5.92926829 84.3342105,5.92926829 Z M84.3342105,20.2292683 C86.7355263,20.2292683 88.7526316,18.295122 88.7526316,15.6317073 C88.7526316,12.9682927 86.7355263,11.0341463 84.3342105,11.0341463 C81.9328947,11.0341463 79.9157895,12.9682927 79.9157895,15.6317073 C79.9157895,18.295122 81.9328947,20.2292683 84.3342105,20.2292683 Z"></path>
                        <path d="M97.3333333,6.53170732 L102.488158,6.53170732 L102.488158,8.46585366 L102.552193,8.46585366 C103.000439,7.57804878 103.960965,5.89756098 107.162719,5.89756098 L107.162719,11.3829268 C104.601316,11.4463415 102.808333,11.9853659 102.808333,14.7439024 L102.808333,24.7317073 L97.3333333,24.7317073 L97.3333333,6.53170732 Z"></path>
                        <path d="M110.300439,6.53170732 L115.423246,6.53170732 L115.423246,8.46585366 L115.487281,8.46585366 C115.903509,7.70487805 117.120175,5.89756098 120.546053,5.89756098 C122.178947,5.89756098 124.388158,6.46829268 125.860965,9.13170732 C126.981579,7.35609756 128.870614,5.89756098 131.688158,5.89756098 C132.96886,5.89756098 135.05,6.18292683 136.522807,7.73658537 C138.251754,9.54390244 138.507895,10.7487805 138.507895,14.8073171 L138.507895,24.7317073 L133.000877,24.7317073 L133.000877,15.0609756 C133.000877,13.5707317 133.000877,11.0341463 130.183333,11.0341463 C127.141667,11.0341463 127.141667,13.7926829 127.141667,14.8073171 L127.141667,24.7317073 L121.666667,24.7317073 L121.666667,14.8390244 C121.666667,13.8560976 121.666667,11.0341463 118.913158,11.0341463 C115.807456,11.0341463 115.807456,13.9829268 115.807456,15.0609756 L115.807456,24.7317073 L110.300439,24.7317073 L110.300439,6.53170732 Z"></path>
                    </g>
                    <ellipse id="Oval" fill="#FFB533" cx="142.990351" cy="21.8463415" rx="2.91359649" ry="2.88536585"></ellipse>
                </g>
                <g id="Group" transform="translate(0.000000, 27.902439)" fill="#FFB533">
                    <polygon id="Shape" points="1.08859649 10.9073171 0.160087719 10.9073171 0.160087719 0 1.08859649 0"></polygon>
                    <path d="M4.09824561,3.26585366 L4.9627193,3.26585366 L4.9627193,4.72439024 C5.12280702,4.21707317 5.44298246,3.83658537 5.92324561,3.5195122 C6.37149123,3.23414634 6.91578947,3.07560976 7.52412281,3.07560976 C8.38859649,3.07560976 9.06096491,3.32926829 9.54122807,3.83658537 C10.0214912,4.34390244 10.2776316,5.04146341 10.2776316,5.96097561 L10.2776316,10.9073171 L9.38114035,10.9073171 L9.38114035,6.15121951 C9.38114035,5.3902439 9.22105263,4.8195122 8.86885965,4.40731707 C8.51666667,4.02682927 8.03640351,3.80487805 7.36403509,3.80487805 C6.62763158,3.80487805 6.05131579,4.05853659 5.63508772,4.53414634 C5.21885965,5.0097561 5.02675439,5.70731707 5.02675439,6.62682927 L5.02675439,10.8756098 L4.13026316,10.8756098 L4.13026316,3.26585366 L4.09824561,3.26585366 Z" id="Shape"></path>
                    <polygon id="Shape" points="16.2649123 10.9073171 15.2403509 10.9073171 12.1346491 3.26585366 13.0631579 3.26585366 15.720614 10.0195122 15.7526316 10.0195122 18.3140351 3.26585366 19.2105263 3.26585366"></polygon>
                    <path d="M26.1263158,8.75121951 L26.9907895,8.75121951 C26.8307018,9.4804878 26.4785088,10.0512195 25.902193,10.4634146 C25.3578947,10.8756098 24.6855263,11.097561 23.9491228,11.097561 C22.8605263,11.097561 21.9960526,10.7487805 21.3557018,10.0195122 C20.6833333,9.2902439 20.3631579,8.33902439 20.3631579,7.13414634 C20.3631579,5.92926829 20.6833333,4.94634146 21.3557018,4.21707317 C21.9960526,3.45609756 22.8605263,3.10731707 23.8850877,3.10731707 C24.8776316,3.10731707 25.6460526,3.45609756 26.2223684,4.12195122 C26.7986842,4.8195122 27.0868421,5.70731707 27.0868421,6.81707317 L27.0868421,7.26097561 L21.195614,7.26097561 C21.195614,8.24390244 21.4517544,8.97317073 21.9320175,9.51219512 C22.4122807,10.0512195 23.0846491,10.3365854 23.9171053,10.3365854 C24.4614035,10.3365854 24.9096491,10.2097561 25.2618421,9.95609756 C25.6460526,9.67073171 25.902193,9.25853659 26.1263158,8.75121951 Z M23.8210526,3.86829268 C23.1166667,3.86829268 22.5403509,4.0902439 22.0600877,4.56585366 C21.6118421,5.04146341 21.3236842,5.67560976 21.2276316,6.5 L26.0942982,6.5 C26.0622807,5.67560976 25.8381579,5.0097561 25.4539474,4.56585366 C25.0697368,4.0902439 24.5254386,3.86829268 23.8210526,3.86829268 Z" id="Shape"></path>
                    <path d="M31.8894737,11.097561 C30.9609649,11.097561 30.1925439,10.8756098 29.6162281,10.4634146 C29.0399123,10.0512195 28.7197368,9.44878049 28.6557018,8.68780488 L29.5201754,8.68780488 C29.5842105,9.22682927 29.8083333,9.63902439 30.2245614,9.92439024 C30.6407895,10.2097561 31.1850877,10.3682927 31.8574561,10.3682927 C32.4657895,10.3682927 32.9460526,10.2414634 33.3302632,9.95609756 C33.7144737,9.67073171 33.9065789,9.32195122 33.9065789,8.87804878 C33.9065789,8.52926829 33.7785088,8.27560976 33.554386,8.05365854 C33.3302632,7.86341463 32.9460526,7.70487805 32.4657895,7.6097561 L31.1210526,7.32439024 C30.3526316,7.16585366 29.8083333,6.94390244 29.4881579,6.62682927 C29.1679825,6.3097561 29.0078947,5.86585366 29.0078947,5.32682927 C29.0078947,4.69268293 29.2640351,4.15365854 29.7763158,3.74146341 C30.2885965,3.32926829 30.9289474,3.10731707 31.729386,3.10731707 C32.5938596,3.10731707 33.2662281,3.29756098 33.7464912,3.64634146 C34.2267544,3.99512195 34.5149123,4.53414634 34.6109649,5.23170732 L33.7464912,5.23170732 C33.6824561,4.78780488 33.4903509,4.43902439 33.1381579,4.21707317 C32.7859649,3.96341463 32.3057018,3.86829268 31.729386,3.86829268 C31.1530702,3.86829268 30.7048246,3.99512195 30.3526316,4.2804878 C30.0004386,4.53414634 29.8403509,4.88292683 29.8403509,5.32682927 C29.8403509,5.67560976 29.9364035,5.92926829 30.1605263,6.1195122 C30.3846491,6.3097561 30.7688596,6.46829268 31.2811404,6.56341463 L32.8179825,6.8804878 C33.4903509,7.03902439 34.0026316,7.26097561 34.2907895,7.57804878 C34.6109649,7.89512195 34.7390351,8.33902439 34.7390351,8.87804878 C34.7390351,9.51219512 34.4508772,10.0512195 33.9065789,10.495122 C33.3942982,10.8756098 32.7219298,11.097561 31.8894737,11.097561 Z" id="Shape"></path>
                    <path d="M39.2855263,10.2414634 C39.445614,10.2414634 39.6377193,10.2097561 39.8298246,10.1780488 C40.0219298,10.1463415 40.2460526,10.0829268 40.4701754,10.0195122 L40.4701754,10.8121951 C40.2460526,10.8756098 40.0539474,10.9390244 39.8298246,10.9707317 C39.6057018,11.002439 39.4135965,11.0341463 39.2214912,11.0341463 C38.5491228,11.0341463 38.0688596,10.8756098 37.7166667,10.5268293 C37.3964912,10.1780488 37.204386,9.67073171 37.204386,9.00487805 L37.204386,3.96341463 L36.0197368,3.96341463 L36.0197368,3.23414634 L37.204386,3.23414634 L37.204386,1.26829268 L38.1008772,1.26829268 L38.1008772,3.23414634 L40.2460526,3.23414634 L40.2460526,3.96341463 L38.1008772,3.96341463 L38.1008772,9.06829268 C38.1008772,9.4804878 38.1969298,9.76585366 38.3890351,9.95609756 C38.5811404,10.1463415 38.8692982,10.2414634 39.2855263,10.2414634 Z" id="Shape"></path>
                    <path d="M45.5929825,3.07560976 C46.6495614,3.07560976 47.4820175,3.45609756 48.154386,4.18536585 C48.7947368,4.91463415 49.1469298,5.89756098 49.1469298,7.07073171 C49.1469298,8.27560976 48.8267544,9.22682927 48.154386,9.98780488 C47.5140351,10.7170732 46.6495614,11.097561 45.5929825,11.097561 C44.5364035,11.097561 43.7039474,10.7170732 43.0315789,9.98780488 C42.3912281,9.25853659 42.0390351,8.27560976 42.0390351,7.07073171 C42.0390351,5.86585366 42.3592105,4.91463415 43.0315789,4.18536585 C43.7039474,3.45609756 44.5684211,3.07560976 45.5929825,3.07560976 Z M45.5929825,3.86829268 C44.7605263,3.86829268 44.1201754,4.15365854 43.6399123,4.72439024 C43.1596491,5.29512195 42.9355263,6.08780488 42.9355263,7.07073171 C42.9355263,8.08536585 43.1596491,8.84634146 43.6399123,9.41707317 C44.1201754,9.98780488 44.7605263,10.2731707 45.5929825,10.2731707 C46.4254386,10.2731707 47.0657895,9.98780488 47.5460526,9.41707317 C48.0263158,8.84634146 48.2504386,8.05365854 48.2504386,7.07073171 C48.2504386,6.08780488 48.0263158,5.29512195 47.5460526,4.72439024 C47.0657895,4.15365854 46.4254386,3.86829268 45.5929825,3.86829268 Z" id="Shape"></path>
                    <path d="M54.8460526,3.07560976 C54.9421053,3.07560976 55.0381579,3.07560976 55.1662281,3.07560976 C55.2622807,3.07560976 55.3583333,3.10731707 55.4864035,3.10731707 L55.4864035,3.93170732 C55.4223684,3.9 55.3263158,3.9 55.1982456,3.9 C55.0701754,3.9 54.9741228,3.9 54.8460526,3.9 C54.1416667,3.9 53.5653509,4.18536585 53.0850877,4.75609756 C52.6368421,5.32682927 52.3807018,6.08780488 52.3807018,7.00731707 L52.3807018,10.9073171 L51.4842105,10.9073171 L51.4842105,3.26585366 L52.3486842,3.26585366 L52.3486842,5.13658537 C52.5087719,4.50243902 52.7969298,4.02682927 53.2451754,3.64634146 C53.6934211,3.26585366 54.2377193,3.07560976 54.8460526,3.07560976 Z" id="Shape"></path>
                    <path d="M59.6807018,11.097561 C58.752193,11.097561 57.9837719,10.8756098 57.4074561,10.4634146 C56.8311404,10.0512195 56.5109649,9.44878049 56.4469298,8.68780488 L57.3114035,8.68780488 C57.3754386,9.22682927 57.5995614,9.63902439 58.0157895,9.92439024 C58.4320175,10.2097561 58.9763158,10.3682927 59.6486842,10.3682927 C60.2570175,10.3682927 60.7372807,10.2414634 61.1214912,9.95609756 C61.5057018,9.67073171 61.697807,9.32195122 61.697807,8.87804878 C61.697807,8.52926829 61.5697368,8.27560976 61.345614,8.05365854 C61.1214912,7.86341463 60.7372807,7.70487805 60.2570175,7.6097561 L58.9122807,7.29268293 C58.1438596,7.13414634 57.5995614,6.91219512 57.279386,6.59512195 C56.9592105,6.27804878 56.7991228,5.83414634 56.7991228,5.29512195 C56.7991228,4.66097561 57.0552632,4.12195122 57.5675439,3.7097561 C58.0798246,3.29756098 58.7201754,3.07560976 59.520614,3.07560976 C60.3850877,3.07560976 61.0574561,3.26585366 61.5377193,3.61463415 C62.0179825,3.96341463 62.3061404,4.50243902 62.402193,5.2 L61.5377193,5.2 C61.4736842,4.75609756 61.2815789,4.40731707 60.929386,4.18536585 C60.577193,3.93170732 60.0969298,3.83658537 59.520614,3.83658537 C58.9442982,3.83658537 58.4960526,3.96341463 58.1438596,4.24878049 C57.7916667,4.50243902 57.6315789,4.85121951 57.6315789,5.29512195 C57.6315789,5.64390244 57.7276316,5.89756098 57.9517544,6.08780488 C58.1758772,6.27804878 58.5600877,6.43658537 59.0723684,6.53170732 L60.6092105,6.84878049 C61.2815789,7.00731707 61.7938596,7.22926829 62.0820175,7.54634146 C62.402193,7.86341463 62.5302632,8.30731707 62.5302632,8.84634146 C62.5302632,9.4804878 62.2421053,10.0195122 61.697807,10.4634146 C61.2175439,10.8756098 60.5131579,11.097561 59.6807018,11.097561 Z" id="Shape"></path>
                </g>
            </g>
        </g>
    </g>
</svg>