<?xml version="1.0" encoding="UTF-8"?>
<svg width="65px" height="32px" viewBox="0 0 65 32" version="1.1" xmlns="http://www.w3.org/2000/svg" xmlns:xlink="http://www.w3.org/1999/xlink">
    <!-- Generator: Sketch 48.2 (47327) - http://www.bohemiancoding.com/sketch -->
    <title>LogoFullColor </title>
    <desc>Created with Sketch.</desc>
    <defs>
        <path d="M21.175,0.505167403 L16.7234375,3.08139744 C16.1822318,3.38332299 15.7408854,4.14840232 15.7408854,4.77238178 L15.7408854,19.3451202 C15.7408854,19.9690996 16.1822318,20.2309697 16.7234375,19.9089158 L21.1952526,17.3123561 C21.7364583,17.0102293 22.1776042,16.2455525 22.1776042,15.6213718 L22.1776042,1.06856047 C22.1776042,0.625937621 21.9572318,0.364067531 21.6361979,0.364067531 C21.4757813,0.364067531 21.3354167,0.404324271 21.175,0.505167403 M7.86061719,5.45654507 L7.86061719,23.7532331 C7.86061719,24.3772126 8.3015625,24.6388814 8.84296875,24.3168275 L13.3147839,21.7204691 C13.8561901,21.4185435 14.2971354,20.6534642 14.2971354,20.029686 L14.2971354,9.18049475 C14.2971354,8.556314 13.8561901,7.79143595 13.3147839,7.48971169 L8.84296875,4.89295071 C8.68255208,4.81243724 8.5421875,4.75205213 8.40182292,4.75205213 C8.10104167,4.75205213 7.86061719,5.01392222 7.86061719,5.45654507 M5.43411458,4.89295071 L0.982552083,7.46938204 C0.441346354,7.79143595 0,8.556314 0,9.18049475 L0,15.6417014 C0,16.2656809 0.441346354,17.0303576 0.982552083,17.3322832 L5.43411458,19.9288429 C5.97552083,20.2309697 6.41666667,19.989228 6.41666667,19.3654498 L6.41666667,5.45654507 C6.41666667,5.01392222 6.19609375,4.75205213 5.87526042,4.75205213 C5.73509635,4.75205213 5.59453125,4.79230887 5.43411458,4.89295071 M23.6013021,5.49680181 L23.6013021,15.6417014 C23.6013021,16.2656809 24.0424479,17.0303576 24.5838542,17.3322832 L29.0554688,19.9288429 C29.596875,20.2309697 30.0380208,19.989228 30.0380208,19.3654498 L30.0380208,9.20062312 C30.0380208,8.57644237 29.596875,7.81156432 29.0554688,7.50963878 L24.5838542,4.91307908 C24.4234375,4.83276689 24.2832734,4.77238178 24.1427083,4.77238178 C23.821875,4.79230887 23.6013021,5.05417896 23.6013021,5.49680181" id="path-1"></path>
    </defs>
    <g id="1.0.1.-Work-Order-Management---Requiring-scheduling---Details" stroke="none" stroke-width="1" fill="none" fill-rule="evenodd" transform="translate(-52.000000, -14.000000)">
        <g id="LogoFullColor-" transform="translate(52.000000, 14.000000)">
            <g id="Logo">
                <mask id="mask-2" fill="white">
                    <use xlink:href="#path-1"></use>
                </mask>
                <use id="Mask" fill="#FFFFFF" xlink:href="#path-1"></use>
            </g>
            <g id="Group" transform="translate(14.838542, 25.320668)" fill="#FFFFFF" fill-rule="nonzero">
                <path d="M2.7671875,0.0805134788 C3.52916667,0.0805134788 4.13072917,0.422695764 4.51171875,0.805134788 L3.7296875,1.69078306 C3.46901042,1.44924262 3.22838542,1.3284724 2.78723958,1.3284724 C2.0453125,1.3284724 1.50390625,1.91219512 1.50390625,2.91861361 C1.50390625,3.94516046 1.96510417,4.50875481 2.92760417,4.50875481 C3.08802083,4.50875481 3.2484375,4.46849807 3.34869792,4.40811297 L3.34869792,3.64323492 L2.54661458,3.64323492 L2.54661458,2.47578947 L4.63203125,2.47578947 L4.63203125,5.07234917 C4.23098958,5.41453145 3.52916667,5.73658537 2.74713542,5.73658537 C1.26328125,5.73658537 0.0401041667,4.81068036 0.0401041667,2.93874198 C0.0200520833,1.1271887 1.26328125,0.0805134788 2.7671875,0.0805134788 Z" id="Shape"></path>
                <polygon id="Shape" points="5.49427083 0.181155327 6.93802083 0.181155327 6.93802083 4.42824134 9.00338542 4.42824134 9.00338542 5.63594352 5.49427083 5.63594352"></polygon>
                <path d="M12.5927083,4.48862644 L11.06875,4.48862644 L10.8080729,5.65607189 L9.32421875,5.65607189 L10.9885417,0.201283697 L12.7330729,0.201283697 L14.3973958,5.65607189 L12.8734375,5.65607189 L12.5927083,4.48862644 Z M12.3320312,3.36143774 L12.2317708,2.97899872 C12.0914063,2.4556611 11.9710937,1.7914249 11.8307292,1.24795892 L11.790625,1.24795892 C11.6703125,1.81155327 11.5299479,2.4556611 11.4096354,2.97899872 L11.309375,3.36143774 L12.3320312,3.36143774 Z" id="Shape"></path>
                <path d="M15.5604167,3.96528883 C15.9414062,4.26721438 16.4226562,4.48862644 16.8236979,4.48862644 C17.2648437,4.48862644 17.4453125,4.34772786 17.4453125,4.10618742 C17.4453125,3.84451861 17.1645833,3.76400513 16.7033854,3.58284981 L16.0216146,3.30105263 C15.4401042,3.0595122 14.91875,2.57643132 14.91875,1.77129653 C14.91875,0.845391528 15.7609375,0.0805134788 16.9440104,0.0805134788 C17.565625,0.0805134788 18.2473958,0.322053915 18.7486979,0.805134788 L18.0268229,1.71091142 C17.6658854,1.44924262 17.3450521,1.30834403 16.9440104,1.30834403 C16.5830729,1.30834403 16.3825521,1.42911425 16.3825521,1.67065469 C16.3825521,1.93232349 16.6833333,2.03296534 17.1846354,2.21412067 L17.8463542,2.47578947 C18.528125,2.73745828 18.9091146,3.22053915 18.9091146,3.96528883 C18.9091146,4.89119384 18.1471354,5.716457 16.7835937,5.716457 C16.1018229,5.716457 15.2997396,5.45478819 14.7182292,4.93145058 L15.5604167,3.96528883 Z" id="Shape"></path>
                <path d="M20.2726562,3.96528883 C20.6536458,4.26721438 21.1348958,4.48862644 21.5359375,4.48862644 C21.9770833,4.48862644 22.1575521,4.34772786 22.1575521,4.10618742 C22.1575521,3.84451861 21.8768229,3.76400513 21.415625,3.58284981 L20.7338542,3.30105263 C20.1523437,3.0595122 19.6309896,2.57643132 19.6309896,1.77129653 C19.6309896,0.845391528 20.4731771,0.0805134788 21.65625,0.0805134788 C22.2778646,0.0805134788 22.9596354,0.322053915 23.4609375,0.805134788 L22.7390625,1.71091142 C22.378125,1.44924262 22.0572917,1.30834403 21.65625,1.30834403 C21.2953125,1.30834403 21.0947917,1.42911425 21.0947917,1.67065469 C21.0947917,1.93232349 21.3955729,2.03296534 21.896875,2.21412067 L22.5585937,2.47578947 C23.2403646,2.73745828 23.6213542,3.22053915 23.6213542,3.96528883 C23.6213542,4.89119384 22.859375,5.716457 21.4958333,5.716457 C20.8140625,5.716457 20.0119792,5.45478819 19.4304687,4.93145058 L20.2726562,3.96528883 Z" id="Shape"></path>
                <polygon id="Shape" points="24.5036458 0.181155327 25.9473958 0.181155327 25.9473958 2.21412067 27.5716146 2.21412067 27.5716146 0.181155327 29.0153646 0.181155327 29.0153646 5.63594352 27.5716146 5.63594352 27.5716146 3.46207959 25.9473958 3.46207959 25.9473958 5.63594352 24.5036458 5.63594352"></polygon>
                <path d="M29.8174479,2.87835687 C29.8174479,1.08693196 30.8401042,0.0805134788 32.3440104,0.0805134788 C33.8479167,0.0805134788 34.8705729,1.10706033 34.8705729,2.87835687 C34.8705729,4.66978177 33.8479167,5.73658537 32.3440104,5.73658537 C30.8401042,5.73658537 29.8174479,4.68991014 29.8174479,2.87835687 Z M33.4067708,2.87835687 C33.4067708,1.89206675 33.0057292,1.30834403 32.3440104,1.30834403 C31.6822917,1.30834403 31.28125,1.87193838 31.28125,2.87835687 C31.28125,3.86464698 31.6822917,4.48862644 32.3440104,4.48862644 C33.0057292,4.48862644 33.4067708,3.88477535 33.4067708,2.87835687 Z" id="Shape"></path>
                <path d="M35.6526042,0.181155327 L37.0963542,0.181155327 L37.0963542,3.18028241 C37.0963542,4.14644416 37.3570313,4.50875481 37.9184896,4.50875481 C38.4799479,4.50875481 38.7606771,4.14644416 38.7606771,3.18028241 L38.7606771,0.181155327 L40.1442708,0.181155327 L40.1442708,2.99912709 C40.1442708,4.87106547 39.4424479,5.73658537 37.9184896,5.73658537 C36.3945312,5.73658537 35.6526042,4.87106547 35.6526042,2.99912709 L35.6526042,0.181155327 Z" id="Shape"></path>
                <path d="M41.5479167,3.96528883 C41.9289063,4.26721438 42.4101563,4.48862644 42.8111979,4.48862644 C43.2523438,4.48862644 43.4328125,4.34772786 43.4328125,4.10618742 C43.4328125,3.84451861 43.1520833,3.76400513 42.6908854,3.58284981 L42.0091146,3.30105263 C41.4276042,3.0595122 40.90625,2.57643132 40.90625,1.77129653 C40.90625,0.845391528 41.7484375,0.0805134788 42.9315104,0.0805134788 C43.553125,0.0805134788 44.2348958,0.322053915 44.7361979,0.805134788 L44.0143229,1.71091142 C43.6533854,1.44924262 43.3325521,1.30834403 42.9315104,1.30834403 C42.5705729,1.30834403 42.3700521,1.42911425 42.3700521,1.67065469 C42.3700521,1.93232349 42.6708333,2.03296534 43.1721354,2.21412067 L43.8338542,2.47578947 C44.515625,2.73745828 44.8966146,3.22053915 44.8966146,3.96528883 C44.8966146,4.89119384 44.1346354,5.716457 42.7710938,5.716457 C42.0893229,5.716457 41.2872396,5.45478819 40.7057292,4.93145058 L41.5479167,3.96528883 Z" id="Shape"></path>
                <polygon id="Shape" points="45.6184896 0.181155327 49.1276042 0.181155327 49.1276042 1.38885751 47.0421875 1.38885751 47.0421875 2.25437741 48.8268229 2.25437741 48.8268229 3.46207959 47.0421875 3.46207959 47.0421875 4.42824134 49.2078125 4.42824134 49.2078125 5.63594352 45.5984375 5.63594352 45.5984375 0.181155327"></polygon>
            </g>
        </g>
    </g>
</svg>